<?xml version="1.0" standalone="no"?><!DOCTYPE svg PUBLIC "-//W3C//DTD SVG 1.1//EN" "http://www.w3.org/Graphics/SVG/1.1/DTD/svg11.dtd"><svg t="1545118709481" class="icon" style="" viewBox="0 0 1024 1024" version="1.1" xmlns="http://www.w3.org/2000/svg" p-id="2262" xmlns:xlink="http://www.w3.org/1999/xlink" width="200" height="200"><defs><style type="text/css"></style></defs><path d="M917.6 394.5c-25.4-5.5-50.5 10.7-55.9 36.1-2.2 10-0.9 20 2.9 28.7-25.4 21.4-66.2 37.2-97.2 36.9-33.4-0.3-70.5-30.6-44.5-107.4l0.9 0.3c8.4 1.8 17.2 0.2 24.4-4.5 7.2-4.7 12.3-12 14.1-20.5 1.8-8.4 0.2-17.2-4.5-24.4-4.7-7.2-12-12.3-20.5-14.1-8.4-1.8-17.2-0.2-24.4 4.5-7.2 4.7-12.3 12-14.1 20.4-2.5 11.7 1.8 23.3 10.1 30.8-39.8 60.5-83.7 61.9-116.5 46.1-40.8-19.7-63.1-86.6-47.9-152.1 24.1-2.4 45-20 50.3-45 6.6-30.9-13-61.4-44-68.1-30.9-6.6-61.4 13-68.1 44-5.3 24.8 6.3 49.4 27.2 61.5-12.9 66-60.8 118-106.1 119.2-36.4 0.9-75.9-18.3-87.3-89.9 10.7-3.4 19.3-12.2 21.9-24 3.8-17.5-7.4-34.8-24.9-38.5-8.4-1.8-17.2-0.2-24.4 4.5-7.2 4.7-12.3 12-14.1 20.4-1.8 8.4-0.2 17.2 4.5 24.4 4.7 7.2 12 12.3 20.4 14.1 0.3 0.1 0.6 0 1 0.1-7.9 80.8-54.1 93.1-84.7 79.7-28.3-12.4-59-43.5-73.4-73.4 7.4-6.6 12.5-15.4 14.6-25.1 5.5-25.4-10.7-50.5-36.1-55.9-25.4-5.5-50.5 10.7-55.9 36.1-5.5 25.4 10.7 50.5 36.1 55.9 4.1 0.9 8.2 1.1 12.2 1 42.9 69.2 67 161.3 59 238.7 34.3-0.6 178.3 7.9 287.1 31.3 108.8 23.4 243.6 74.7 274.6 89.3 24.5-74 84.3-148 151.8-193.5 3.7 1.9 7.6 3.4 11.7 4.2 25.4 5.5 50.5-10.7 55.9-36.1 5.4-25.3-10.8-50.3-36.2-55.7z" fill="#F9D00E" p-id="2263"></path><path d="M459.8 586.5c108.8 23.4 243.6 74.7 274.6 89.3 24.5-74 84.3-148 151.8-193.5 3.7 1.9 7.6 3.3 11.7 4.2 25.4 5.5 50.5-10.7 55.9-36.1 5.5-25.4-10.7-50.5-36.1-55.9-25.4-5.5-50.5 10.7-55.9 36.1-2.2 10-0.9 20 2.9 28.7-25.4 21.4-66.2 37.2-97.2 36.9-33.5-0.3-70.5-30.5-44.5-107.4l0.9 0.3c8.4 1.8 17.2 0.2 24.4-4.5 7.2-4.7 12.3-12 14.1-20.5 1.8-8.4 0.2-17.2-4.5-24.4-4.7-7.2-12-12.3-20.5-14.1-8.4-1.8-17.2-0.2-24.4 4.5-7.2 4.7-12.3 12-14.1 20.4-2.5 11.7 1.8 23.3 10.1 30.8-39.8 60.5-83.7 61.9-116.5 46.1-40.8-19.7-63.1-86.6-47.9-152.1 24.1-2.4 45-20 50.3-45 6.6-30.9-13-61.4-44-68.1l-91.1 424.3z" fill="#ECB408" p-id="2264"></path></svg>