<?xml version="1.0" standalone="no"?><!DOCTYPE svg PUBLIC "-//W3C//DTD SVG 1.1//EN" "http://www.w3.org/Graphics/SVG/1.1/DTD/svg11.dtd"><svg t="1544604831479" class="icon" style="" viewBox="0 0 2226 1024" version="1.1" xmlns="http://www.w3.org/2000/svg" p-id="7078" xmlns:xlink="http://www.w3.org/1999/xlink" width="434.765625" height="200"><defs><style type="text/css"></style></defs><path d="M1335.652174 845.913043l-178.086957 178.086957-178.086956-178.086957H89.043478c-48.973913 0-89.043478-40.069565-89.043478-89.043478V89.043478C0 40.069565 40.069565 0 89.043478 0h2048c48.973913 0 89.043478 40.069565 89.043479 89.043478v667.826087c0 48.973913-40.069565 89.043478-89.043479 89.043478H1335.652174z" fill="#FA6A14" p-id="7079"></path><path d="M1055.165217 543.165217c-22.26087 0-35.617391-8.904348-48.973913-22.260869-22.26087-26.713043-35.617391-80.13913-35.617391-160.278261V302.747826h-53.426087c0 35.617391-4.452174 71.234783-13.356522 97.947826 22.26087 17.808696 44.521739 35.617391 62.330435 53.426087l-31.165217 53.426087c-17.808696-17.808696-35.617391-35.617391-53.426087-48.973913-17.808696 35.617391-40.069565 66.782609-71.234783 93.495652l-40.069565-35.617391c31.165217-22.26087 53.426087-53.426087 71.234783-89.043478-13.356522-13.356522-31.165217-22.26087-44.52174-31.165218l31.165218-44.521739c8.904348 4.452174 17.808696 8.904348 26.713043 17.808696 4.452174-22.26087 4.452174-40.069565 8.904348-66.782609h-53.426087V249.321739h53.426087V182.53913h53.426087v62.330435H1024V356.173913c0 57.878261 4.452174 93.495652 8.904348 115.756522 4.452174 8.904348 4.452174 13.356522 8.904348 13.356522s4.452174-8.904348 8.904347-22.26087c0-13.356522 4.452174-31.165217 4.452174-48.973913l40.069566 22.260869c-4.452174 48.973913-8.904348 75.686957-17.808696 93.495653-4.452174 8.904348-8.904348 13.356522-22.26087 13.356521z m-445.217391-298.295652h71.234783V182.53913h57.878261v62.330435h57.87826v53.426087h-57.87826v62.330435l53.426087-17.808696V400.695652l-53.426087 13.356522V489.73913c0 35.617391-17.808696 53.426087-53.426087 53.426087h-53.426087l-13.356522-53.426087c13.356522 0 31.165217 4.452174 44.521739 4.452174 8.904348 0 13.356522-4.452174 13.356522-17.808695v-44.521739c-22.26087 4.452174-44.521739 8.904348-71.234783 13.356521l-13.356522-53.426087c26.713043-4.452174 57.878261-8.904348 84.591305-13.356521V298.295652h-71.234783V244.869565z m53.426087 311.652174l44.521739 22.26087c-17.808696 40.069565-40.069565 75.686957-66.782609 106.852174l-44.521739-35.617392c26.713043-26.713043 48.973913-57.878261 66.782609-93.495652z m133.565217 13.356522c8.904348 31.165217 17.808696 62.330435 26.713044 97.947826l-57.878261 13.356522c-4.452174-40.069565-13.356522-71.234783-26.713043-97.947826l57.87826-13.356522z m111.304348-8.904348c13.356522 31.165217 26.713043 66.782609 40.069565 102.4l-57.87826 17.808696c-8.904348-40.069565-22.26087-75.686957-35.617392-106.852174l53.426087-13.356522z m102.4-13.356522c31.165217 40.069565 57.878261 75.686957 71.234783 102.4l-44.521739 31.165218c-17.808696-31.165217-40.069565-66.782609-71.234783-106.852174l44.521739-26.713044z m529.808696 129.113044h-44.521739l-13.356522-53.426087h44.521739c13.356522 0 22.26087-8.904348 22.26087-26.713044V258.226087h-200.347826V204.8H1602.782609v405.147826c0 44.521739-22.26087 66.782609-62.330435 66.782609zM1157.565217 271.582609h53.426087v405.147826H1157.565217V271.582609zM1251.06087 178.086957c26.713043 26.713043 44.521739 62.330435 66.782608 93.495652l-48.973913 26.713043c-22.26087-35.617391-44.521739-66.782609-66.782608-97.947826l48.973913-22.260869z" fill="#FFFFFF" p-id="7080"></path></svg>