<?xml version="1.0" standalone="no"?><!DOCTYPE svg PUBLIC "-//W3C//DTD SVG 1.1//EN" "http://www.w3.org/Graphics/SVG/1.1/DTD/svg11.dtd"><svg t="1545984208291" class="icon" style="" viewBox="0 0 1024 1024" version="1.1" xmlns="http://www.w3.org/2000/svg" p-id="2722" xmlns:xlink="http://www.w3.org/1999/xlink" width="200" height="200"><defs><style type="text/css"></style></defs><path d="M976.696061 341.971605C882.71969 85.346634 598.596575-46.622519 341.861905 47.426986 85.145518 141.36679-46.622519 425.526472 47.426986 682.151442c93.939805 256.62497 378.099486 388.484424 634.724456 294.544619 256.51527-93.958088 388.393007-378.099486 294.544619-634.724456z m15.997923-5.905519c97.066256 265.437541-39.418883 559.287393-304.83814 656.445065-265.346124 97.249089-559.488509-39.236049-656.554765-304.655307C-65.820027 422.509721 70.646829 128.458752 336.102652 31.301079 601.485343-65.820027 895.426612 70.646829 992.675701 336.102652zM676.136223 960.679855c-247.629567 90.648803-522.172211-36.712948-612.802731-284.543632C-27.425011 428.41524 99.955024 154.073712 347.74914 63.443192c247.830683-90.648803 522.172211 36.621531 612.912431 284.342515 90.557387 247.830683-36.804365 522.172211-284.543631 612.912431z m8.81257 24.024309c261.031255-95.658439 395.19441-384.608355 299.663955-645.731027C889.027442 78.033298 600.095809-56.129856 338.973137 39.418883 77.941881 134.857921-56.239556 423.990671 39.418883 684.948793c95.439039 261.122672 384.590072 395.19441 645.52991 299.755371zM390.093358 179.176739l28.924245 3.894352-14.516973-25.212727 12.615505-26.218311-28.522011 5.905519-21.025842-20.001975-3.089885 28.905962-25.596677 13.803922 26.510844 11.920739 5.192469 28.613428L390.093358 179.176739z m258.837254 669.828471l-21.025842-20.111675-3.089884 28.814545-25.596677 13.913622 26.510844 11.902455 5.302168 28.613428 19.380342-21.610909 28.924245 3.912635-14.49869-25.23101 12.505806-26.200027-28.412312 5.996936z m-376.088318-581.099418l10.896871-26.913078 28.412311-6.289469-22.305676-18.722141 2.907052-29.015662-24.719077 15.412856-26.711961-11.609921 7.00252 28.229478-19.197508 21.812026 28.887678 2.0843 14.809506 25.011611z m484.033162 513.268223l-26.602261-11.609921 7.002519 28.229478-19.307207 21.793742 29.015661 2.011168 14.699806 25.103027 10.915155-27.004495 28.522011-6.307752-22.323959-18.612441 2.797351-29.015662-24.719076 15.412856zM182.102074 345.189473l22.415375 18.502741 1.097001-29.107079 24.609376-15.504273-27.297027-10.110687-7.203637-28.119778-18.00909 22.927309-29.015662-1.810051 16.19904 24.115727-10.787171 27.004494 27.991795-7.898403zM834.45167 681.237275l-29.033945-1.791767 16.217323 24.207143-10.805454 26.913077 28.119778-7.898403 22.305676 18.612441 1.097-29.125362 24.499677-15.595689-27.205611-10.019271-7.203636-28.101495-18.009091 22.799326zM181.462157 427.208539l-28.997379-0.091417-16.509856-23.914609-9.013687 27.717544-27.918662 8.20922 23.512376 17.094924-0.694766 29.125362 23.512376-17.113207 27.425011 9.69017-9.013687-27.607844 17.698274-23.110143z m700.964999 105.165776l-8.995403 27.607844-27.918662 8.20922 23.603793 17.094924-0.804467 29.125362 23.512376-17.113207 27.425012 9.69017-9.013687-27.607844 17.716557-23.091859h-29.015662l-16.509857-23.91461zM511.257056 157.67553l25.706377 13.511389-4.899935-28.613428 20.916142-20.312792-28.924245-4.205168-12.798339-26.108611-12.798338 26.108611-28.924245 4.205168 20.916142 20.294509-4.899936 28.631711 25.706377-13.511389z m0.182834 691.951313l-12.889755 26.017194-28.704845 4.205168 20.806441 20.294508-5.009635 28.723129 25.816077-13.602806 25.706377 13.602806-4.899935-28.704845 20.806442-20.312792-28.704845-4.205168-12.908039-26.017194z m139.593306-649.332845l5.101052-28.613429 26.510844-11.993871-25.596677-13.822206-3.217868-28.905961-21.025841 20.203091-28.394029-5.905519 12.615505 26.218311-14.315855 25.23101 28.704845-3.912635 19.618024 21.501209zM374.881618 849.44401l-28.412311-5.795819 12.615505 26.10861-14.407273 25.322427 28.814545-4.022335 19.599741 21.519492 5.210753-28.613428 26.419427-12.012155-25.614961-13.712505-3.217867-28.887679-21.007559 20.111675z m373.894318-582.598652l14.516972-25.212727 29.107079-2.194001-19.416908-21.610909 6.819686-28.320894-26.620544 11.701338-24.810494-15.193457 2.998468 28.905962-22.122842 18.813558 28.339178 6.216336 11.189405 26.894794zM267.137891 782.398999l-24.609376-15.303156 2.888767 28.905962-22.214259 18.904974 28.522012 6.216336 11.006571 26.803377 14.699806-25.103026 28.924245-2.303701-19.508325-21.610909 6.89282-28.211195-26.602261 11.701338z m79.130299-465.640121a255.30857 255.30857 0 0 0-86.535052 151.678594l18.703858-6.911102a237.884546 237.884546 0 0 1 78.947465-131.768037c87.339519-74.138947 212.306152-74.522897 299.554254-7.697286l18.703858-6.801403c-93.756971-78.344115-233.021177-80.245582-329.374383 1.499234z m331.367267 390.404174a254.558953 254.558953 0 0 0 86.553335-151.568894l-18.703858 6.892819a238.049096 238.049096 0 0 1-78.856048 131.658337c-87.339519 74.138947-212.306152 74.54118-299.554254 7.715569l-18.795275 6.801403c93.848388 78.344115 233.021177 80.227299 329.3561-1.499234zM340.984304 310.250009c100.741207-85.639168 247.227333-82.531 344.092473 1.499234l8.995403-3.291002c-99.955024-89.75292-253.425386-94.159205-358.591161-4.808518a271.708726 271.708726 0 0 0-93.848388 171.388035l9.105104-3.199584a263.389806 263.389806 0 0 1 90.246569-161.588165z m342.081305 403.312212c-100.649791 85.639168-247.135916 82.531-344.092472-1.499233l-8.995404 3.291001c99.955024 89.661503 253.425386 94.159205 358.682578 4.808518a271.471043 271.471043 0 0 0 93.848388-171.388035l-9.19652 3.291001a262.91444 262.91444 0 0 1-90.24657 161.496748zM175.885738 699.758299c-5.905519 2.888768-11.811038 5.704402-17.716557 8.501754l8.227503 12.194988a6061.384531 6061.384531 0 0 1 65.820026-35.104014l7.806987 22.013142 12.706922-4.515985-8.501754-23.91461 17.296041-8.995403a195.266079 195.266079 0 0 1-4.388002-11.902455c-5.612986 3.108168-11.317388 6.106636-17.003507 9.105103l-22.232542-62.529025 97.651322-34.738347-4.004051-11.189405-185.575908 65.820027 3.985768 11.207688 20.623608-7.295053 25.304144 71.341595z m-45.708352-152.976712L151.568895 607.006912l13.109155-4.698819-1.499234-4.314868 103.355725-36.712948 1.499234 4.296585 13.109155-4.698819-21.409792-60.133907-129.574035 46.037451z m17.003507 6.198053l103.337441-36.712948 4.314869 11.993871-103.355725 36.731232-4.314869-12.012155z m115.349596-2.596234L159.174764 587.07807l-4.205168-12.012154 103.264308-36.712949 4.296585 12.012155z m-52.125804 73.736713l-41.814 14.809506-5.302169-15.010623 41.814-14.809506 5.302169 14.992339z m9.19652 25.816077l-41.814 14.809506-5.302169-15.010623 41.814001-14.809506 5.302168 14.992339z m3.802935 10.896871l4.515985 12.615505c-13.017739 6.801403-26.328011 13.602805-39.930816 20.294508l-6.399169-18.100507 41.814-14.809506z m8.410337-46.220285l3.894352 10.896871 7.806986-2.797352a103.520275 103.520275 0 0 0 36.621531 32.324947c-7.203636 12.103572-17.003507 23.311259-29.216778 33.82418a74.961697 74.961697 0 0 1 12.798338 8.684587 142.719758 142.719758 0 0 0 29.235062-36.914065c14.297572 5.210752 30.405196 7.49617 48.414287 7.11222 1.005584-4.808519 2.194001-10.220387 3.802934-16.107624-17.204624 1.499234-32.61748 0.292533-46.019168-3.711518a143.889891 143.889891 0 0 0 10.896871-48.816519l-3.894352-10.915155-74.340063 26.419428z m63.936842-10.512921a106.262776 106.262776 0 0 1-9.324503 38.815532 81.799666 81.799666 0 0 1-30.204079-24.810493l39.528582-14.005039z m37.023765-138.770556c1.992884 35.615948-1.407817 70.939362-10.110687 105.659426 4.205168 4.095468 8.300637 8.70287 12.396105 14.114739a362.558646 362.558646 0 0 0 8.81257-37.736816l38.413299 108.164244 14.626673-5.210752-48.633687-136.759389c1.279834-16.016206 1.700351-32.324946 1.097001-49.035919l-16.601274 0.804467z m40.406183 68.635661l4.808519 13.511388 127.672568-45.415818-4.808518-13.529672-56.623507 20.111675-10.220387-28.997379 49.328453-17.606857-4.790235-13.529672-49.328453 17.625141-10.311805-28.905962-14.608389 5.192469 10.311804 28.924245-49.41987 17.606857 4.790236 13.493105 49.52957-17.606857 10.311804 29.015662-56.64179 20.111675z m30.423479 90.356269l4.698819 13.291989 131.45722-46.622519-4.790236-13.493105-58.433557 20.806442-11.609921-32.61748 50.937387-18.100508-4.808518-13.529672-50.919104 18.118791-8.903987-25.103027-14.516973 5.192469 8.812571 25.12131-50.827688 18.100507 4.808519 13.511389 50.827687-18.100507 11.591638 32.599196-58.323857 20.824725z m114.65483-157.693813c4.095468-8.995404 7.11222-20.111675 9.214804-31.813013l10.988287-4.205168c7.60587 6.015219 15.723673 14.005039 20.111675 19.416907l9.617037-8.008103c-3.711518-4.790235-10.202104-11.097988-17.003506-16.400156l31.008545-11.902455-4.205168-10.805455-48.523986 18.703858c0.60335-5.996936 0.914167-12.103572 0.914167-18.100507l-12.926322 1.48095c0.310817 20.312792-4.095468 42.325934-11.884172 58.634674 3.382418 0.60335 9.873004 1.901467 12.688639 2.998468z m80.848933-31.209663c0.786184-1.791767 1.279834-3.894352 1.791767-5.795819l-13.511389-0.201117c-7.093936 27.808961-31.209663 59.018624-62.017092 84.834701 3.693235 1.407817 9.105104 4.698819 11.884172 7.00252a286.792482 286.792482 0 0 0 32.23353-33.22083l2.504817 6.508869 77.027715-29.710429-3.199585-8.20922c15.303156 1.810051 30.917129 2.907051 45.434102 2.194001 0.786184-4.205168 2.596234-10.403221 4.589118-14.206155-33.019713 2.705934-73.736713-1.791767-96.737155-9.196521z m70.939362 39.528583l-107.26836 41.411767 22.506792 58.23244 11.920738-4.607402-3.016751-7.806987 83.042933-31.995846 2.705935 6.89282 12.304688-4.698819-22.214259-57.427973z m-29.619012-19.014675l-65.83831 25.413844c8.501753-11.408805 15.723673-23.219843 20.715025-35.213714 11.884171 3.693235 28.101495 7.404753 45.123285 9.79987z m-50.425454 95.347622l-11.006571-28.522011 83.042933-31.995846 11.006571 28.503728-83.042933 31.995846z m5.485002-123.4674c2.815634-6.216336 4.607402-13.511389 6.106636-21.391508l14.114739-5.411869c8.70287 5.302169 17.716557 12.706922 22.616492 18.100507l10.000988-8.59317c-4.205168-4.717102-11.701338-10.311804-19.014675-14.809506l36.018182-13.913622-4.205169-10.805455-58.01304 22.415376a125.606551 125.606551 0 0 0 0-18.411324l-12.798338 1.901468c1.389534 16.601273-1.115284 34.518947-7.313337 47.829219 3.400701 0.585067 9.690171 1.992884 12.505805 3.108168z m113.466413-49.328453l-6.106636-15.796806 132.572503-51.138504 6.106636 15.906506 12.103572-4.698818-10.202104-26.510844-70.336012 27.114194c-4.388002-3.693235-10.805454-8.008103-15.723673-11.299105l-8.776004 7.697287c3.382418 2.504818 7.788703 5.503286 11.481938 8.59317l-72.932246 28.119778 10.202104 26.510844 11.609922-4.497702z m156.871063 12.213272l7.130503-12.706922c-16.729257 0.694767-38.431582 3.291001-62.346192 6.911103 8.300637-10.714038 13.511389-22.122842 15.613973-34.518948l36.018181-13.913622-4.022335-10.421504-95.530455 36.840932c2.194001-6.015219 4.095468-12.304688 5.594702-17.807974l-12.615505 0.786183a162.374349 162.374349 0 0 1-6.399169 22.214259l-53.314222 20.605325 4.004052 10.421504 44.209118-17.003506c-3.802935 10.092404-8.410337 20.001975-12.505805 28.211194a935.942495 935.942495 0 0 1 46.531102-9.41592c-16.217323 12.213272-37.828232 24.006026-64.540193 36.018181 3.016751 1.810051 6.508869 5.210752 8.70287 8.20922 33.421947-15.723673 59.329441-30.825712 77.045998-47.719519 25.907494-3.912635 48.92622-6.399169 66.44166-6.709986z m41.228933 45.324401c-27.516428 4.205168-60.335024 1.901467-83.13435-6.709986l66.22226-25.304143-4.095468-10.604338-77.429948 29.801846-6.106636-15.906507-12.304688 4.717102 6.088352 15.906506-76.332947 29.399612 4.095468 10.604338 66.039427-25.50526c-10.695754 21.208675-33.421947 45.232985-56.221273 60.426441 3.601818 1.407817 8.70287 4.808519 11.518505 6.911103 23.402676-17.204624 46.000885-43.020701 56.404106-67.648361l16.41844 42.52705 12.304688-4.698818-16.820673-43.514351c24.719077 11.701338 60.243608 15.997923 89.460386 12.908038 0.49365-3.711518 2.194001-9.909571 3.894351-13.310272z m-149.557727-59.036907l55.014572-21.208675c-2.797351 11.408805-9.30622 21.812025-19.106091 32.01413-14.718089 2.504818-29.728712 5.503286-44.721051 8.70287 3.108168-5.905519 5.905519-12.615505 8.794287-19.508325z" p-id="2723" fill="#2d8cf0"></path></svg>