<?xml version="1.0" standalone="no"?><!DOCTYPE svg PUBLIC "-//W3C//DTD SVG 1.1//EN" "http://www.w3.org/Graphics/SVG/1.1/DTD/svg11.dtd"><svg t="1544494581646" class="icon" style="" viewBox="0 0 1024 1024" version="1.1" xmlns="http://www.w3.org/2000/svg" p-id="1287" xmlns:xlink="http://www.w3.org/1999/xlink" width="200" height="200"><defs><style type="text/css"></style></defs><path d="M601.75465358 1009.74996594zM647.9265189 998.96214642zM508.33214123 1018.16446407q-21.5756379 0-42.07249294-1.94180778c14.02416469 1.29453853 27.83257259 1.94180779 42.07249294 1.94180778zM555.15127581 1016.22265629zM461.29725099 1015.79114382zM692.80384569 983.6434432zM413.83084829 1008.23967061c-14.02416469-2.80483271-27.83257259-6.25693469-41.42522482-10.14054912 13.59265223 4.5308837 27.40106013 7.98298567 41.42522482 10.14054912zM860.01503915 874.68647197c-11.00357518 10.78781838-21.5756379 21.5756379-33.87375161 30.42164963 11.65084445-9.49328099 23.08593209-19.84958691 33.87375161-30.42164963zM736.38663395 965.08839481c-11.86660125 6.04117902-23.73320135 11.43508765-35.81555939 16.61324174 12.08235691-6.25693469 24.16471495-11.86660125 35.81555939-16.61324174zM820.10010851 910.0705189c-10.78781838 8.63025493-21.5756379 16.61324061-33.22648234 24.16471381 11.43508765-7.55147321 22.43866283-15.75021568 33.22648234-24.16471381zM778.6748837 939.62914247c-11.00357518 7.11996075-21.5756379 13.80840789-33.65799481 19.84958692 11.43508765-6.04117902 22.65441963-12.72962617 33.65799481-19.84958692zM998.31487715 617.50486926q-4.31512803 21.5756379-10.35630592 43.15127581 6.25693469-21.7913947 10.35630592-43.15127581zM1005.2190811 569.82270976a431.51275691 431.51275691 0 0 1-6.25693468 43.15127581 423.74552803 423.74552803 0 0 0 6.25693468-43.15127581zM1005.6505947 475.53717248c1.29453853 15.10294642 2.15756345 29.99013717 2.15756345 45.09308245 0.43151246-15.10294642-0.86302606-30.20589283-2.15756345-45.09308245zM1008.23967061 521.92479346c0 14.67143395 0 29.55862357-2.15756344 44.44581433 0.86302606-14.67143395 2.15756345-29.55862357 2.15756344-44.44581433zM986.66403271 664.5397595zM162.04315421 617.0733568c-3.02058951-10.78781838-5.39390976-21.5756379-7.55147322-33.01072669v-1.07878172a328.16545223 328.16545223 0 0 1-4.31512803-32.57921308v-2.37332025c0-9.06176739-1.51029419-17.90777913-1.51029419-27.18530333a358.37134507 358.37134507 0 0 1 24.16471382-129.45382741c1.29453853-3.66785877 2.37332025-7.11996075 3.66785877-10.57206272s4.96239616-10.35630592 7.55147321-15.75021568 4.96239616-11.00357518 7.76723001-16.39748494l6.68844715-10.78781839a220.07150592 220.07150592 0 0 1 11.65084444-19.41807445c1.72605099-2.58907705 3.88361443-4.96239616 5.60966656-7.55147321 4.96239616-7.11996075 9.92479346-14.02416469 15.53445888-21.5756379l1.51029418-1.94180665c6.90420395-8.19874247 14.02416469-16.18172814 21.57563791-23.94895815a317.80914517 317.80914517 0 0 1 23.94895815-21.5756379l1.94180778-1.72605099c6.68844829-5.60966542 13.59265223-10.57206272 21.57563791-15.53446001l7.55147321-5.60966543c6.25693469-4.31512803 12.94538297-7.98298567 19.41807331-11.86660124s7.11996075-4.31512803 10.78781952-6.47269149 11.00357518-5.17815296 16.61324061-7.76722887 10.14055026-5.17815296 15.53446002-7.33571755 7.11996075-2.58907705 10.57206272-3.88361443a358.37134507 358.37134507 0 0 1 129.45382627-24.16471381c9.27752419 0 18.12353593 0 27.18530446 1.51029418h2.37332025a328.16545223 328.16545223 0 0 1 32.57921308 4.31512804h1.07878173c11.21933198 2.15756345 21.5756379 4.5308837 33.01072555 7.55147321a360.96042098 360.96042098 0 0 1 159.65972024 92.77524195l96.01158827-96.01158826c11.86660125 11.86660125 22.87017643 24.38047061 33.44223915 37.11009678A496.23967061 496.23967061 0 0 0 13.17125234 514.15756345v13.59265223a496.23967061 496.23967061 0 0 0 145.63555555 345.2102053l96.01158827-95.79583147a362.90222877 362.90222877 0 0 1-92.77524195-160.09123271zM863.68289678 870.80285753c11.00357518-11.00357518 21.5756379-21.5756379 31.0689189-34.30526407q-14.45567715 17.90777913-31.0689189 34.30526407zM998.96214642 428.07076864zM366.79595691 997.23609543c-13.16113863-4.09937123-26.3222784-8.63025493-39.26766024-13.80840789 11.86660125 5.17815296 25.89076594 9.70903666 39.26766024 13.80840789zM923.87892679 797.22993209zM949.12242347 755.15743915c-6.25693469 11.86660125-13.16113863 23.51744569-20.49685618 34.95253333 7.11996075-11.43508765 14.88718962-23.08593209 20.49685618-34.95253333zM970.05079211 710.71162482l0 0zM987.74281443 382.54617259a423.52977123 423.52977123 0 0 1 10.57206272 43.1512758c-2.80483271-15.31870322-6.47269149-29.77438037-10.57206272-43.1512758zM972.20835555 336.59006407c5.60966542 13.80840789 10.35630592 27.61681693 14.67143396 41.64098162-4.31512803-14.23992149-9.06176739-28.04832939-14.67143396-41.64098162zM320.62409273 980.83861049zM234.32154112 934.66674517zM194.83812295 905.3238784a446.18419086 446.18419086 0 0 1-33.65799481-30.42164963c10.78781838 10.57206272 22.00715037 20.92836864 33.65799481 30.42164963zM927.54678557 250.50326926c7.98298567 12.29811371 15.31870322 24.59622741 21.5756379 37.32585359-5.60966542-13.16113863-13.59265223-25.24349667-21.5756379-37.32585359zM952.35876864 293.00727581c6.68844829 12.94538297 12.72962617 25.89076594 18.12353593 39.26766136a431.51275691 431.51275691 0 0 0-18.12353593-39.26766136zM897.55664839 209.94107051c9.70903666 11.86660125 18.77080519 24.16471495 27.18530332 36.67858432-8.63025493-13.59265223-17.69202347-25.67500914-27.18530332-36.67858432zM276.1782784 959.69448505c-11.65084445-6.25693469-23.08593209-12.94538297-34.52102087-20.28109938 11.43508765 7.11996075 22.87017643 14.02416469 34.52102087 20.28109938z" fill="#FFD96B" p-id="1288"></path><path d="M898.85118691 831.1036837c8.84601173-11.00357518 17.26050987-21.5756379 25.02773988-33.87375161 1.72605099-2.37332025 3.02058951-4.7466405 4.7466405-7.11995961 7.33571641-11.43508765 14.23992149-23.08593209 20.49685618-34.95253333l3.88361443-7.33571755c6.25693469-12.29811371 11.86660125-24.59622741 17.04475421-37.11009678l2.58907591-6.47269149c5.17815296-12.94538297 9.92479346-26.3222784 14.02416469-39.69917383l1.29453852-4.96239616q6.04117902-21.5756379 10.35630592-43.1512758v-4.09937124a431.51275691 431.51275691 0 0 0 6.25693469-43.1512758v-3.45210197c1.29453853-14.88718962 1.94180779-29.77438037 2.15756459-44.44581434v-0.64726926c0-15.10294642 0-29.99013717-2.15756459-45.09308245a14.23992149 14.23992149 0 0 1 0-3.02058951c-1.51029419-14.88718962-3.66785877-29.77438037-6.47269035-44.44581433v-3.02058951a423.52977123 423.52977123 0 0 0-10.57206272-43.1512758v-3.45210198c-4.31512803-14.02416469-9.06176739-27.83257259-14.67143395-41.64098048 0-1.29453853 0-2.80483271-1.72605099-4.31512804-5.39390976-13.37689543-11.43508765-26.3222784-18.12353593-39.26766022l-2.58907705-5.1781541c-6.90420395-12.72962617-14.23992149-25.02773987-21.5756379-37.32585245 0-1.51029419-1.94180779-3.02058951-2.80483271-4.74664049-8.41449927-12.51387051-17.47626667-24.81198307-27.18530333-36.67858432l-1.94180778-2.58907706c-10.57206272-12.72962617-21.5756379-25.24349667-33.44223801-37.11009678l-96.01158941 96.01158827a361.60769024 361.60769024 0 0 1-511.34261702 511.55837383l-96.01158827 95.79583147 2.37332025 1.94180779a446.18419086 446.18419086 0 0 0 33.6579948 30.42164963c1.94180779 1.72605099 3.88361443 3.02058951 5.82542223 4.5308837 11.00357518 8.84601173 21.5756379 17.04475421 33.65799481 24.81198307l7.33571754 4.7466405c11.43508765 7.33571641 22.87017643 14.02416469 34.52102088 20.28109938l7.76722886 4.09937124c12.08235691 6.04117902 24.38047061 11.86660125 36.67858432 17.0447542l6.90420395 2.58907705c12.94538297 5.17815296 26.1065216 9.70903666 39.26766137 13.80840789l5.60966542 1.51029419c13.59265223 3.88361443 27.40106013 7.33571641 41.42522482 10.14055025h4.9623973c14.02416469 2.58907705 28.26408505 4.7466405 43.1512758 6.04117903h4.96239616q21.5756379 1.94180779 42.07249408 1.94180665H512c13.80840789 0 27.83257259 0 41.64098162-1.94180665h5.17815296c14.02416469-1.29453853 28.04832939-3.45210197 42.07249294-6.04117903h5.60966656c13.59265223-2.58907705 27.18530333-6.04117902 40.56219875-9.70903665l6.47269149-1.94180779c12.94538297-3.88361443 25.67500914-8.41449927 38.40463531-13.37689543l7.76723-3.02058951c12.08235691-5.17815296 23.94895815-10.57206272 35.81555826-16.6132406l8.63025494-4.53088484c11.43508765-6.04117902 22.65441963-12.72962617 33.65799594-19.84958578l8.19874248-5.39390976c11.21933198-7.55147321 21.5756379-15.53445888 33.22648234-24.16471495l6.04117788-4.96239616c11.65084445-9.49328099 22.87017643-19.63383011 33.87375162-30.42164963l1.94180778-1.94180779 1.72605099-1.94180665q16.61324061-16.61324061 31.06891776-34.30526407a50.70274901 50.70274901 0 0 0 4.96239729-5.60966656z" fill="#FDC223" p-id="1289"></path><path d="M154.49168099 582.98384839c-1.94180779-10.78781838-3.45210197-21.5756379-4.31512803-32.57921308a328.16545223 328.16545223 0 0 0 4.31512803 32.57921308zM231.51670727 291.06546802l1.51029532-1.94180665zM278.55159865 243.59906531l1.94180665-1.72605098zM209.94107051 319.32955421c1.72605099-2.58907705 3.88361443-5.17815296 5.60966542-7.55147322-1.51029419 2.58907705-3.66785877 6.04117902-5.60966542 7.55147322zM162.04315421 617.0733568zM301.20601827 226.33855431l7.55147322-5.60966542zM176.49883136 382.54617259c2.37332025-5.39390976 4.96239616-10.35630592 7.55147321-15.75021568-2.58907705 4.5308837-5.17815296 9.49328099-7.55147321 15.75021568zM191.81753458 349.53544704l6.68844715-10.78781952zM172.83097259 392.25521038a358.37134507 358.37134507 0 0 0-24.16471382 129.45382628c0 9.27752419 0 18.12353593 1.51029419 27.18530446a359.66588359 359.66588359 0 0 1 22.65441963-156.63913074zM537.45925234 160.74861568c-9.06176739 0-17.90777913-1.51029419-27.18530333-1.51029419a358.37134507 358.37134507 0 0 0-129.45382741 24.16471382 359.66588359 359.66588359 0 0 1 156.63913074-22.65441963zM606.50129408 172.61521693a359.88163925 359.88163925 0 0 1 151.02946531 86.30255046L619.87818951 397.21760654l-45.52459605 91.26494777h62.78510592v53.07606926h-90.18616605v28.69559865h90.18616605v53.07606927h-90.18616605v112.4090732h-67.74750322v-112.4090732h-86.3025516l-145.20404196 145.41979875a359.88163925 359.88163925 0 0 1-86.30255161-151.02946418 361.60769024 361.60769024 0 1 0 444.45813988-444.45814101zM573.49056739 165.06374371c11.00357518 2.15756345 21.5756379 4.5308837 33.01072669 7.55147322-10.78781838-3.02058951-21.7913947-5.82542222-33.01072669-7.55147322zM355.57662606 194.62236729c5.17815296-2.58907705 10.35630592-5.17815296 15.53445888-7.33571755-5.39390976 2.15756345-10.14055026 4.7466405-15.53445888 7.33571755zM328.17556594 209.94107051c3.66785877-1.94180779 7.11996075-4.31512803 10.78781838-6.47269149-3.66785877 1.07878173-7.11996075 3.45210197-10.78781838 6.47269149zM539.83257259 160.74861568c10.78781838 0 21.5756379 2.37332025 32.57921308 4.31512803a328.16545223 328.16545223 0 0 0-32.57921308-4.31512803z" fill="#F9AB10" p-id="1290"></path><path d="M479.20503011 570.25422222v-28.69559865h-4.31512689l-28.69559865 28.69559865h33.01072554z" fill="#F9AB10" p-id="1291"></path><path d="M393.33399211 623.33029149h-3.23634632V570.25422222H447.27308629l28.69559865-28.69559865h-85.87103915v-53.07606926h62.78510592l-74.65170602-151.02946418h74.0044379l47.89791516 102.26852296a188.3553189 188.3553189 0 0 1 13.16113978 33.8737516 233.01688889 233.01688889 0 0 1 12.94538296-33.8737516l48.97669689-102.26852296h74.00443791L619.87818951 397.21760654l138.94710727-138.94710727a359.88163925 359.88163925 0 0 0-151.02946417-86.30255161c-10.78781838-3.02058951-21.5756379-5.39390976-33.01072669-7.55147321h-2.37332025c-10.78781838-1.94180779-21.5756379-3.45210197-32.57921308-4.31512803h-2.37332025a359.66588359 359.66588359 0 0 0-155.77610468 21.5756379c-3.45210197 1.29453853-7.11996075 2.37332025-10.57206272 3.88361443s-10.35630592 4.7466405-15.53445888 7.33571755-11.21933198 4.96239616-16.61324174 7.76722887-7.11996075 4.5308837-10.78781838 6.47269149-13.16113863 7.55147321-19.41807445 11.86660124l-7.55147322 5.60966543c-7.11996075 4.96239616-14.02416469 9.92479346-21.5756379 15.53446001l-1.94180778 1.72605099a317.80914517 317.80914517 0 0 0-23.94895816 21.5756379c-7.76723001 7.76723001-14.88718962 15.75021568-21.5756379 23.94895815l-1.51029418 1.94180665c-5.60966542 6.68844829-10.57206272 13.59265223-15.53445888 21.5756379-1.72605099 2.37332025-3.88361443 4.96239616-5.60966656 7.55147321a220.07150592 220.07150592 0 0 0-11.65084445 19.41807445l-6.68844715 10.78781839c-2.80483271 5.39390976-5.17815296 11.00357518-7.76723 16.39748494s-5.17815296 10.35630592-7.55147321 15.75021568-2.37332025 6.90420395-3.66785877 10.57206272a359.66588359 359.66588359 0 0 0-21.57563791 155.77610581v2.37332025c0 10.78781838 2.37332025 21.5756379 4.31512804 32.57921309v1.07878172c2.15756345 11.00357518 4.5308837 21.5756379 7.55147321 33.01072555a359.88163925 359.88163925 0 0 0 86.3025516 151.02946531z" fill="#F9B721" p-id="1292"></path><path d="M546.73677653 623.33029149h0.2157568v112.4090732h-0.2157568zM636.92294371 570.25422222h0.21575567v53.07606927h-0.21575567zM636.92294371 488.48255431h0.21575567v53.07606926h-0.21575567zM546.73677653 541.55862357h0.2157568v28.69559865h-0.2157568zM575.21661838 337.02157653l-48.97669689 102.26852409a233.01688889 233.01688889 0 0 0-12.94538296 33.87375161 188.3553189 188.3553189 0 0 0-13.16113978-33.87375161l-47.89791516-102.26852409H378.23104569l74.65170602 151.02946532h-62.78510592v53.07606926h89.10738432v29.12711111h-89.10738432v53.07606927h43.15127581l143.69374891-143.69374778-4.53088484 8.8460106 47.46640384-91.26494777 29.99013604-60.19603001z" fill="#D3830D" p-id="1293"></path><path d="M577.80569543 479.63654371l-143.69374777 143.69374778h45.09308245v112.4090732h67.53174642v-112.4090732h90.18616718V570.25422222h-90.18616718v-28.69559865h90.18616718v-53.07606926h-63.64813198l4.5308837-8.8460106z" fill="#BF790A" p-id="1294"></path></svg>