<?xml version="1.0" standalone="no"?><!DOCTYPE svg PUBLIC "-//W3C//DTD SVG 1.1//EN" "http://www.w3.org/Graphics/SVG/1.1/DTD/svg11.dtd"><svg t="1544671223277" class="icon" style="" viewBox="0 0 1024 1024" version="1.1" xmlns="http://www.w3.org/2000/svg" p-id="15117" xmlns:xlink="http://www.w3.org/1999/xlink" width="200" height="200"><defs><style type="text/css"></style></defs><path d="M360.838095 699.733333h299.885715V321.828571H360.838095zM470.552381 275.748571h85.333333c2.438095 0 4.87619 0 7.314286-2.438095 2.438095-2.438095 2.438095-4.87619 2.438095-7.314286 0-2.438095 0-7.314286-2.438095-7.314285-2.438095-2.438095-4.87619-2.438095-7.314286-2.438095h-85.333333c-2.438095 0-4.87619 0-7.314286 2.438095-2.438095 2.438095-2.438095 4.87619-2.438095 7.314285 0 2.438095 0 7.314286 2.438095 7.314286 0 2.438095 2.438095 2.438095 7.314286 2.438095m41.447619 443.733334c-9.752381 0-17.066667 2.438095-24.380952 9.752381-7.314286 7.314286-9.752381 14.628571-9.752381 24.380952s2.438095 17.066667 9.752381 24.380952c7.314286 7.314286 14.628571 9.752381 24.380952 9.752381s17.066667-2.438095 24.380952-9.752381c7.314286-7.314286 9.752381-14.628571 9.752381-24.380952s-2.438095-17.066667-9.752381-24.380952c-7.314286-7.314286-14.628571-9.752381-24.380952-9.752381" fill="#FE7293" p-id="15118"></path><path d="M714.361905 731.672381c0 12.190476-2.438095 21.942857-7.314286 31.695238-4.87619 9.752381-9.752381 17.066667-17.066667 24.380952-7.314286 7.314286-17.066667 12.190476-26.819047 17.066667-9.752381 4.87619-21.942857 7.314286-34.133334 7.314286h-236.495238c-12.190476 0-21.942857-2.438095-34.133333-7.314286-9.752381-4.87619-19.504762-9.752381-26.819048-17.066667-7.314286-7.314286-14.628571-14.628571-17.066666-24.380952-4.87619-9.752381-7.314286-19.504762-7.314286-31.695238v-441.295238c0-12.190476 2.438095-21.942857 7.314286-31.695238 4.87619-9.752381 9.752381-17.066667 17.066666-24.380953 9.752381-9.752381 17.066667-14.628571 29.257143-19.504762 9.752381-4.87619 21.942857-7.314286 34.133334-7.314285h236.495238c12.190476 0 21.942857 2.438095 34.133333 7.314285 7.314286 4.87619 17.066667 9.752381 24.380952 17.066667 7.314286 7.314286 14.628571 14.628571 17.066667 24.380953 4.87619 9.752381 7.314286 19.504762 7.314286 31.695238v443.733333zM512 0.24381C229.180952 0.24381 0 229.424762 0 509.805714c0 280.380952 229.180952 509.561905 512 509.561905s512-229.180952 512-509.561905C1024 229.424762 792.380952 0.24381 512 0.24381z" fill="#FE7293" p-id="15119"></path></svg>