<?xml version="1.0" standalone="no"?><!DOCTYPE svg PUBLIC "-//W3C//DTD SVG 1.1//EN" "http://www.w3.org/Graphics/SVG/1.1/DTD/svg11.dtd"><svg t="1545989230538" class="icon" style="" viewBox="0 0 1024 1024" version="1.1" xmlns="http://www.w3.org/2000/svg" p-id="19535" xmlns:xlink="http://www.w3.org/1999/xlink" width="200" height="200"><defs><style type="text/css"></style></defs><path d="M277.162667 563.768889H124.359111A33.336889 33.336889 0 0 1 91.022222 530.545778V198.883556a33.336889 33.336889 0 0 1 33.336889-33.336889H572.302222a33.336889 33.336889 0 0 1 33.336889 33.336889v331.662222a33.336889 33.336889 0 0 1-33.336889 33.336889H489.244444a34.133333 34.133333 0 0 0 0 68.266666h83.057778a101.717333 101.717333 0 0 0 101.603556-101.603555V198.883556a101.717333 101.717333 0 0 0-101.603556-101.489778H124.359111A101.717333 101.717333 0 0 0 22.755556 198.883556v331.662222a101.717333 101.717333 0 0 0 101.603555 101.603555h152.803556a34.133333 34.133333 0 0 0 0-68.266666z" fill="#FA6A14" p-id="19536"></path><path d="M899.640889 391.964444h-146.773333a34.133333 34.133333 0 1 0 0 68.266667h146.773333A33.336889 33.336889 0 0 1 932.977778 493.454222v331.662222a33.336889 33.336889 0 0 1-33.336889 33.336889H451.697778a33.336889 33.336889 0 0 1-33.336889-33.336889V493.454222a33.336889 33.336889 0 0 1 33.336889-33.336889h76.458666a34.133333 34.133333 0 0 0 0-68.266666H451.697778a101.717333 101.717333 0 0 0-101.603556 101.603555v331.662222a101.717333 101.717333 0 0 0 101.603556 101.603556h447.943111A101.717333 101.717333 0 0 0 1001.244444 825.116444V493.454222a101.717333 101.717333 0 0 0-101.603555-101.489778z" fill="#FA6A14" p-id="19537"></path></svg>