<?xml version="1.0" standalone="no"?><!DOCTYPE svg PUBLIC "-//W3C//DTD SVG 1.1//EN" "http://www.w3.org/Graphics/SVG/1.1/DTD/svg11.dtd"><svg t="1544668884009" class="icon" style="" viewBox="0 0 1024 1024" version="1.1" xmlns="http://www.w3.org/2000/svg" p-id="6667" xmlns:xlink="http://www.w3.org/1999/xlink" width="200" height="200"><defs><style type="text/css"></style></defs><path d="M561.664 525.0816a26.7776 26.2656 0 1 0 53.5552 0 26.7776 26.2656 0 1 0-53.5552 0Z" fill="#07B906" p-id="6668"></path><path d="M709.0944 525.0816a26.7776 26.2656 0 1 0 53.5552 0 26.7776 26.2656 0 1 0-53.5552 0Z" fill="#07B906" p-id="6669"></path><path d="M512 8.576C229.2224 8.576 0 233.344 0 510.5408s229.2224 501.9648 512 501.9648 512-224.7424 512-501.9648S794.7776 8.576 512 8.576z m-81.8944 630.2208c-26.7776 0-53.5552-4.4288-78.1568-11.008-2.176 0-4.5056-2.1248-4.5056-2.1248l-60.2624 35.1232c-15.5648 8.832-26.7776 2.1248-22.272-15.2832 0 0 15.5904-63.488 13.4144-63.488-58.0864-37.248-84.864-85.3248-84.864-150.9376 4.5312-111.5904 102.6048-199.1936 236.6464-199.1936 122.8288 0 223.232 74.3168 240.9984 172.928h-11.2128c-122.8288 0-223.232 83.2-223.232 185.9072 0 17.408 2.176 32.8192 6.656 48.0768h-13.2096z m359.3216 85.4784l17.7408 35.0976c9.0368 15.2576 2.176 21.8368-13.3888 13.1328 0 0-44.544-26.2656-46.848-24.1152-20.096 6.5536-64.768 13.1328-87.04 13.1328-113.792 0-207.6672-76.6208-207.6672-170.6496s93.8752-170.6496 207.6672-170.6496 207.6928 76.6208 207.6928 170.6496c-0.1536 54.6304-28.9536 100.4288-78.1568 133.376z" fill="#07B906" p-id="6670"></path><path d="M358.656 334.464a31.744 31.744 0 0 0-31.3088 0c-9.6512 5.4784-15.5648 15.5648-15.5648 26.5472s5.9136 21.0688 15.5648 26.5472c9.6512 5.504 21.504 5.504 31.3088 0 9.6512-5.4784 15.5648-15.5648 15.5648-26.5472s-5.9136-21.0688-15.5648-26.5472zM530.688 391.68a30.976 30.976 0 0 0 31.2832-30.6688c0-11.008-5.9136-21.0688-15.5648-26.5472a31.744 31.744 0 0 0-31.3088 0c-9.9584 5.4784-15.7184 15.5648-15.7184 26.5472A30.976 30.976 0 0 0 530.688 391.68z" fill="#07B906" p-id="6671"></path></svg>